<?xml version="1.0" encoding="utf-8"?>
<!-- Generator: Adobe Illustrator 20.0.0, SVG Export Plug-In . SVG Version: 6.00 Build 0)  -->
<svg version="1.1" xmlns="http://www.w3.org/2000/svg" xmlns:xlink="http://www.w3.org/1999/xlink" x="0px" y="0px"
	 viewBox="0 0 605.569 372.111" enable-background="new 0 0 605.569 372.111" xml:space="preserve">
<g id="HEADER_TOP__x26__BOTTOM">
</g>
<g id="KEYS">
</g>
<g id="STRUCTURE">
	<g>
		<g>
			<path d="M579.333,160.152c-3.324,3.452-6.393,6.751-9.581,9.93c-17.714,17.66-37.956,31.913-59.568,44.364
				c-23.253,13.396-47.819,23.847-73.111,32.595c-16.947,5.861-33.922,11.817-51.238,16.396
				c-21.969,5.809-44.243,10.513-66.48,15.248c-33.861,7.211-68,12.933-102.282,17.73c-24.676,3.454-49.38,6.753-74.127,9.64
				c-25.383,2.962-50.835,5.343-76.258,7.964c-1.97,0.203-3.951,0.294-6.518,0.479c0.679-1.434,1.155-2.534,1.709-3.593
				c10.977-20.96,21.538-42.118,30.356-64.098c14.751-36.769,25.955-74.539,32.593-113.656c4.686-27.611,6.826-55.379,6.524-83.359
				c-0.018-1.709-0.002-3.419-0.002-5.494c1.286,0.152,2.323,0.204,3.33,0.404c39.257,7.767,77.702,18.628,115.696,31.046
				c23.932,7.822,47.605,16.44,71.361,24.797c38.723,13.623,77.566,26.858,117.236,37.519c31.898,8.572,64.199,15.106,97.04,18.698
				c13.056,1.428,26.203,2.016,39.308,2.995C576.631,159.856,577.937,160.014,579.333,160.152z M145.821,61.623
				c-0.555,53.698-10.726,105.358-27.653,156.265c3.013,0,5.268,0,7.522,0c112.002,0.012,224.004-0.013,336.005,0.128
				c6.795,0.009,12.835-1.243,18.969-4.288c22.235-11.036,43.642-23.313,62.808-39.223c0.708-0.588,1.365-1.236,2.398-2.177
				c-1.159-0.152-1.688-0.223-2.218-0.291c-12.041-1.536-24.123-2.804-36.114-4.662c-27.52-4.263-54.605-10.562-81.419-18.055
				c-32.917-9.198-65.322-19.988-97.554-31.321c-23.756-8.352-47.382-17.103-71.303-24.953
				c-31.846-10.45-63.916-20.224-96.543-28.027C155.902,63.868,151.06,62.815,145.821,61.623z"/>
			<path d="M28.108,321.584c10.2-31.51,20.851-63.554,30.925-95.778c10.063-32.189,17.656-65.007,24.126-98.113
				c6.48-33.16,9.372-66.808,13.827-100.243c0.296,0.012,0.592,0.025,0.888,0.037c0.173,1.008,0.484,2.014,0.497,3.025
				c0.251,19.213,0.922,38.434,0.571,57.636c-0.404,22.097-4.643,43.741-9.512,65.248c-9.708,42.877-23.303,84.512-39.954,125.168
				c-6.019,14.697-13.15,28.856-21.088,42.61C28.186,321.526,27.926,321.845,28.108,321.584z"/>
			<g>
				<path d="M156.259,156.849l4.242-8.154c0.282-0.534,0.455-0.943,0.518-1.226c0-0.44-0.267-0.66-0.801-0.66
					c-0.378,0-0.849,0.094-1.414,0.282l-3.865,1.179c-0.942,0.251-1.713,0.409-2.31,0.471c-0.879,0-1.319-0.534-1.319-1.602
					c0-0.879,0.478-1.681,1.437-2.404c0.958-0.722,2.631-1.524,5.019-2.404c13.291-4.806,23.659-7.21,31.106-7.21
					c3.927,0,7.235,0.84,9.921,2.521c2.686,1.681,4.029,3.763,4.029,6.245c0,4.43-3.315,8.766-9.944,13.008
					c-2.356,1.508-4.619,2.687-6.787,3.535c-0.66,0.251-0.99,0.518-0.99,0.801c0,0.283,0.126,0.504,0.378,0.66l2.922,0.613
					c1.633,0.282,3.252,0.801,4.854,1.555c2.451,1.068,4.407,2.601,5.868,4.595c1.46,1.996,2.191,4.061,2.191,6.198
					c0,3.519-1.437,7.14-4.313,10.863c-2.874,3.724-6.669,6.905-11.381,9.544c-4.023,2.231-8.28,3.975-12.773,5.232
					c-2.294,0.628-4.462,1.099-6.504,1.414c-2.043,0.313-4.1,0.472-6.174,0.472c-5.248,0-9.489-0.849-12.725-2.546
					s-4.854-3.864-4.854-6.504c0-2.734,1.24-7.383,3.724-13.951C149.583,170.737,152.897,163.228,156.259,156.849z M175.96,168.914
					c-1.855,0-4.046,0.196-6.575,0.589c-2.53,0.393-4.47,0.84-5.821,1.343c-1.132,0.376-2.043,1.061-2.734,2.049
					c-0.692,0.99-1.587,2.868-2.686,5.632c-2.482,6.158-3.724,10.118-3.724,11.877c0,2.922,3.644,4.382,10.934,4.382
					c3.142,0,6.339-0.486,9.591-1.46c3.253-0.973,6.087-2.293,8.508-3.959c2.074-1.414,3.699-3.047,4.877-4.902
					c1.178-1.853,1.767-3.691,1.767-5.514c0-3.173-1.249-5.639-3.747-7.4C183.853,169.793,180.39,168.914,175.96,168.914z
					 M185.292,141.908c-2.734,0-5.248,0.424-7.541,1.272c-2.294,0.849-3.975,1.996-5.042,3.441c-1.195,1.571-2.609,4.085-4.242,7.54
					c-1.634,3.457-2.451,5.625-2.451,6.505c0,1.068,0.643,1.602,1.932,1.602c1.068,0,2.199-0.125,3.394-0.378
					c1.194-0.251,2.64-0.675,4.336-1.272c3.205-1.099,5.907-2.387,8.107-3.864c2.199-1.477,4.029-3.253,5.491-5.326
					c1.46-2.074,2.191-3.912,2.191-5.515C191.466,143.245,189.407,141.908,185.292,141.908z"/>
				<path d="M238.219,155.671c3.927,0,6.967,1.044,9.119,3.133c2.152,2.09,3.229,5.067,3.229,8.931c0,3.457-1.022,7.18-3.064,11.171
					c-2.043,3.99-4.933,7.808-8.672,11.452c-3.865,3.834-7.879,6.763-12.042,8.79c-4.163,2.026-8.098,3.039-11.806,3.039
					c-3.393,0-6.134-1.036-8.223-3.11s-3.135-4.713-3.135-7.918c0-4.555,1.633-9.654,4.902-15.294
					c3.267-5.639,7.446-10.251,12.536-13.833C227.064,157.791,232.783,155.671,238.219,155.671z M233.6,161.939
					c-2.388,0-4.831,0.801-7.329,2.404c-2.498,1.602-4.847,3.833-7.046,6.692c-1.853,2.482-3.307,5.137-4.359,7.965
					c-1.053,2.828-1.579,5.498-1.579,8.012c0,2.105,0.612,3.833,1.838,5.184c1.226,1.352,2.843,2.027,4.854,2.027
					c2.263,0,4.706-0.746,7.329-2.239c2.624-1.493,4.973-3.495,7.046-6.009c1.886-2.388,3.44-5.043,4.666-7.965
					c1.226-2.922,1.838-5.529,1.838-7.824c0-2.577-0.652-4.595-1.955-6.056C237.598,162.67,235.831,161.939,233.6,161.939z"/>
				<path d="M301.843,162.409l-9.378,19.654c-1.068,2.231-1.909,4.273-2.522,6.126c-0.612,1.855-0.919,3.378-0.919,4.572
					c0,0.974,0.063,1.76,0.189,2.356l0.141,1.037c0,0.911-1.147,2.043-3.44,3.394c-2.074,1.225-3.629,1.838-4.666,1.838
					c-0.817,0-1.54-0.519-2.168-1.556c-0.597-1.099-0.896-2.325-0.896-3.676v-0.802c0-0.879-0.141-1.335-0.424-1.366
					c-0.251,0-0.535,0.157-0.848,0.471c-1.98,1.824-4.47,3.41-7.47,4.761c-3.001,1.351-5.6,2.026-7.799,2.026
					c-2.986,0-5.335-0.858-7.046-2.574c-1.713-1.715-2.569-4.085-2.569-7.108c0-2.235,0.503-4.628,1.508-7.179
					c1.697-4.345,2.922-7.272,3.676-8.785l4.383-8.737c1.099-2.046,1.821-3.952,2.168-5.715c0.125-0.755,0.378-1.298,0.754-1.629
					c0.378-0.331,1.147-0.732,2.31-1.205c2.575-0.975,4.555-1.464,5.938-1.464c1.571,0,2.356,0.772,2.356,2.315
					c0,0.693-0.455,1.907-1.366,3.638l-2.64,5.197l-1.932,3.971c-4.43,9.262-6.646,14.838-6.646,16.727
					c0,1.26,0.416,2.292,1.249,3.096c0.833,0.803,1.862,1.205,3.087,1.205c2.231,0,4.493-0.746,6.787-2.239
					c2.293-1.491,4.43-3.574,6.41-6.245c0.848-1.132,1.775-2.561,2.78-4.289c1.005-1.727,2.152-3.864,3.441-6.41
					c1.099-2.23,2.183-4.524,3.252-6.88c0.942-2.105,1.775-4.1,2.498-5.986c0.188-0.597,0.463-1.029,0.825-1.297
					c0.36-0.266,1.249-0.699,2.663-1.295c2.575-1.005,4.555-1.508,5.938-1.508c1.194,0,1.79,0.597,1.79,1.79
					C303.257,159.268,302.787,160.525,301.843,162.409z"/>
				<path d="M324.129,161.323l-6.577,14.951l-1.415,3.393l-1.603,3.722c-2.013,5.151-3.177,8.448-3.491,9.893
					c-0.188,1.163-0.441,1.964-0.755,2.403c-0.22,0.41-0.785,0.943-1.697,1.603c-3.208,2.355-5.41,3.533-6.603,3.533
					c-0.566,0-1.117-0.33-1.652-0.99c-0.471-0.66-0.708-1.462-0.708-2.404c0-2.168,2.2-8.169,6.599-18.003l7.87-18.099l6.785-14.187
					l2.028-4.241c0.44-1.13,0.848-1.892,1.226-2.285c0.376-0.393,1.021-0.778,1.932-1.155c3.141-1.099,5.42-1.65,6.834-1.65
					c1.382,0,2.074,0.55,2.074,1.651c0,0.567-0.344,1.4-1.033,2.5c-0.876,1.54-2.159,3.946-3.848,7.217L324.129,161.323z"/>
				<path d="M355.477,163.165l-3.582,0.141c-1.132,0-1.901,0.126-2.31,0.378c-0.409,0.188-0.865,0.644-1.366,1.366
					c-2.609,4.054-5.484,9.41-8.625,16.071c-1.79,3.771-2.686,6.615-2.686,8.531c0,1.351,0.471,2.435,1.414,3.252
					c0.942,0.817,2.168,1.225,3.676,1.225c3.173,0,7.037-1.444,11.594-4.336c0.974-0.565,1.571-0.879,1.791-0.942
					c0.376,0,0.566,0.205,0.566,0.612c0,1.164-1.398,2.86-4.195,5.091c-5.404,4.305-10.62,6.456-15.647,6.456
					c-2.734,0-4.996-0.801-6.786-2.404c-1.792-1.602-2.687-3.659-2.687-6.174c0-3.047,1.493-7.509,4.478-13.385l6.693-13.243
					l0.33-0.99c0-0.565-0.378-0.848-1.132-0.848h-0.236l-6.692,0.424l-0.99,0.094c-0.848,0-1.272-0.33-1.272-0.99
					c0-0.407,0.392-0.989,1.178-1.743l1.98-1.933c1.098-1.036,1.932-1.704,2.498-2.003c0.565-0.298,1.46-0.447,2.686-0.447h3.77
					c0.942,0,1.587-0.102,1.932-0.307c0.345-0.204,0.785-0.808,1.32-1.815l4.854-9.142c0.755-1.414,1.257-2.254,1.509-2.522
					c0.25-0.266,0.722-0.541,1.414-0.825c2.45-0.942,4.413-1.414,5.89-1.414c0.66,0,1.209,0.197,1.65,0.589
					c0.44,0.394,0.66,0.936,0.66,1.627c0,0.472-0.299,1.289-0.896,2.45l-4.382,8.343c-0.378,0.723-0.566,1.257-0.566,1.602
					c0,0.503,0.785,0.754,2.356,0.754l6.457-0.282h0.848c1.571,0,2.356,0.314,2.356,0.942c0,0.376-0.441,1.005-1.32,1.886
					c-0.376,0.345-0.848,0.739-1.414,1.178c-0.44,0.345-1.029,0.754-1.767,1.225c-0.739,0.472-1.548,0.841-2.427,1.108
					C357.519,163.031,356.544,163.165,355.477,163.165z"/>
				<path d="M370.748,182.534c-1.822,0-2.734,1.744-2.734,5.232c0,2.262,0.738,4.069,2.216,5.42
					c1.477,1.352,3.409,2.026,5.797,2.026c6.316,0,12.678-2.858,19.087-8.578c1.132-0.973,2.011-1.46,2.64-1.46
					c0.848,0,1.272,0.361,1.272,1.084c0,1.005-0.88,2.521-2.64,4.548c-1.759,2.026-3.722,3.762-5.892,5.207
					c-2.702,1.791-5.836,3.261-9.401,4.407c-3.567,1.147-6.843,1.721-9.828,1.721c-3.958,0-7.148-1.045-9.566-3.135
					c-2.42-2.089-3.629-4.862-3.629-8.319c0-5.781,2.151-11.719,6.457-17.815c3.582-5.121,7.98-9.205,13.196-12.254
					c5.215-3.047,10.18-4.572,14.893-4.572c2.734,0,4.948,0.706,6.646,2.117c0.722,0.597,1.256,1.31,1.602,2.141
					c0.345,0.832,0.518,1.779,0.518,2.846c0,2.416-1.257,5.097-3.77,8.045c-2.325,2.791-5.295,5.16-8.908,7.104
					c-5.248,2.823-10.18,4.234-14.799,4.234H370.748z M387.103,161.985c-3.426,0-7.054,2.058-10.887,6.175
					c-1.352,1.445-2.577,3.024-3.676,4.736c-1.101,1.713-1.65,2.899-1.65,3.559c0,0.754,0.848,1.132,2.546,1.132
					c4.083,0,7.588-0.723,10.51-2.168c2.136-1.037,3.927-2.467,5.372-4.289c1.445-1.821,2.168-3.55,2.168-5.184
					c0-1.226-0.4-2.191-1.201-2.899C389.482,162.34,388.422,161.985,387.103,161.985z"/>
				<path d="M405.199,184.844l10.274-21.915l1.98-3.959c0.282-0.407,0.785-0.816,1.508-1.226c3.3-1.727,5.624-2.592,6.975-2.592
					c1.161,0,1.744,0.55,1.744,1.65c0,0.723-0.378,1.744-1.132,3.064c-0.565,0.942-0.848,1.525-0.848,1.744
					c0,0.376,0.173,0.566,0.518,0.566c0.189,0,0.927-0.44,2.216-1.32c5.153-3.645,9.568-5.467,13.243-5.467
					c1.633,0,3.04,0.314,4.219,0.942c1.178,0.629,1.767,1.352,1.767,2.168c0,0.974-0.99,2.216-2.97,3.724
					c-2.294,1.728-3.958,2.592-4.996,2.592c-0.282,0-0.66-0.141-1.13-0.424c-1.478-0.91-2.86-1.366-4.148-1.366
					c-1.571,0-3.307,0.487-5.208,1.46c-1.901,0.974-3.496,2.232-4.783,3.771c-2.231,2.607-4.666,6.644-7.305,12.112
					c-1.289,2.703-2.388,5.255-3.299,7.659c-0.911,2.404-1.681,4.8-2.309,7.187c-0.189,0.755-0.519,1.367-0.99,1.839
					c-0.472,0.471-1.462,1.178-2.97,2.12c-2.231,1.383-3.88,2.074-4.948,2.074c-1.508,0-2.262-0.896-2.262-2.686
					C400.345,196.36,401.963,191.788,405.199,184.844z"/>
			</g>
			<g>
				<path d="M124.161,334.386l5.247-0.468c0.755,0,1.503-0.024,2.241-0.074c1.971-0.131,2.964-0.197,2.981-0.197
					c0.772,0,1.277,0.038,1.515,0.111c0.238,0.074,0.365,0.235,0.382,0.481c0,0.279-0.342,0.702-1.024,1.269
					c-0.682,0.566-1.459,1.046-2.331,1.44c-0.543,0.246-1.126,0.44-1.751,0.579c-0.626,0.139-1.291,0.209-1.997,0.209l-4.046,0.147
					c-0.887,0-1.623,0.042-2.207,0.124s-1.073,0.197-1.467,0.344c-0.658,0.246-1.2,0.781-1.628,1.601
					c-0.543,1.002-1.118,2.406-1.726,4.212c-0.264,0.805-0.469,1.536-0.618,2.192c-0.147,0.657-0.221,1.157-0.221,1.503
					c0,0.69,0.255,1.19,0.765,1.503c0.509,0.279,1.381,0.419,2.614,0.419c2.006,0,3.951-0.156,5.833-0.468
					c1.883-0.311,4.222-0.861,7.018-1.65c0.46-0.115,0.822-0.173,1.085-0.173c0.493,0,0.74,0.246,0.74,0.739
					c0,0.379-0.267,0.838-0.801,1.38c-0.534,0.543-1.269,1.093-2.204,1.651c-1.675,0.969-3.892,1.715-6.65,2.241
					c-2.562,0.476-4.935,0.714-7.118,0.714c-2.25,0-3.933-0.344-5.049-1.034c-1.577-0.969-2.365-2.43-2.365-4.385
					c0-1.116,0.444-2.943,1.33-5.481c0.887-2.537,2.077-5.348,3.572-8.436l3.054-6.33c0.493-1.034,0.74-1.715,0.74-2.044
					c0-0.147-0.062-0.397-0.185-0.751s-0.202-0.653-0.234-0.899c0-0.427,0.275-0.908,0.825-1.442
					c0.549-0.533,1.202-0.931,1.958-1.195c1.067-0.344,3.128-0.66,6.183-0.948c3.054-0.287,6.034-0.431,8.941-0.431
					c2.183,0,3.587,0.045,4.212,0.135c0.623,0.091,0.936,0.291,0.936,0.603c0,0.493-0.567,1.174-1.7,2.044
					c-0.69,0.509-1.404,0.896-2.142,1.158c-0.723,0.214-1.659,0.32-2.808,0.32l-5.936,0.148c-1.839,0-3.128,0.419-3.868,1.256
					c-0.411,0.509-1.096,1.765-2.056,3.769c-0.961,2.003-1.442,3.185-1.442,3.546c0,0.394,0.304,0.591,0.912,0.591L124.161,334.386z
					"/>
				<path d="M149.038,339.657l3.473,1.06c1.412,0.41,2.553,0.878,3.424,1.404c1.215,0.722,1.822,1.65,1.822,2.782
					c0,2.069-1.716,4.269-5.147,6.601c-3.17,2.135-6.413,3.202-9.729,3.202c-1.774,0-3.202-0.23-4.286-0.69
					c-0.607-0.246-1.142-0.649-1.601-1.207c-0.46-0.558-0.69-1.075-0.69-1.551c0-0.788,0.526-1.634,1.577-2.538
					c0.854-0.705,1.527-1.059,2.02-1.059c0.329,0,0.493,0.164,0.493,0.493l-0.024,0.246v0.123c0,0.706,0.46,1.298,1.378,1.774
					c0.92,0.476,2.045,0.714,3.375,0.714c1.462,0,2.849-0.262,4.163-0.788c0.902-0.344,1.633-0.82,2.191-1.428
					c0.558-0.607,0.838-1.215,0.838-1.823c0-0.837-0.863-1.519-2.586-2.044l-2.142-0.641c-1.478-0.426-2.709-0.87-3.695-1.33
					c-1.593-0.772-2.389-1.774-2.389-3.005c0-0.985,0.476-2.057,1.428-3.214c0.952-1.158,2.299-2.286,4.039-3.387
					c3.514-2.2,6.873-3.301,10.075-3.301c1.264,0,2.335,0.271,3.214,0.813c0.878,0.543,1.318,1.223,1.318,2.045
					c0,1.019-0.739,1.962-2.217,2.832c-0.755,0.427-1.388,0.64-1.897,0.64c-0.344,0-0.55-0.254-0.616-0.763
					c-0.148-1.363-1.216-2.045-3.202-2.045c-1.724,0-3.342,0.423-4.852,1.269c-1.511,0.846-2.266,1.762-2.266,2.746
					C146.526,338.474,147.363,339.164,149.038,339.657z"/>
				<path d="M176.205,334.386l-1.871,0.073c-0.591,0-0.994,0.066-1.207,0.197c-0.214,0.099-0.452,0.337-0.715,0.714
					c-1.363,2.118-2.865,4.918-4.506,8.399c-0.937,1.971-1.404,3.457-1.404,4.458c0,0.706,0.246,1.273,0.739,1.7
					c0.493,0.427,1.133,0.641,1.921,0.641c1.659,0,3.678-0.755,6.059-2.266c0.509-0.296,0.822-0.459,0.937-0.493
					c0.197,0,0.296,0.107,0.296,0.32c0,0.608-0.731,1.495-2.192,2.661c-2.825,2.25-5.551,3.374-8.178,3.374
					c-1.428,0-2.611-0.419-3.546-1.256c-0.936-0.837-1.404-1.913-1.404-3.226c0-1.592,0.779-3.924,2.34-6.995l3.498-6.921
					l0.173-0.517c0-0.296-0.197-0.443-0.591-0.443h-0.123l-3.498,0.221l-0.517,0.049c-0.444,0-0.665-0.172-0.665-0.517
					c0-0.213,0.206-0.517,0.616-0.911l1.035-1.01c0.575-0.541,1.01-0.89,1.305-1.046c0.296-0.156,0.763-0.235,1.404-0.235h1.97
					c0.493,0,0.829-0.053,1.01-0.159c0.18-0.107,0.411-0.423,0.69-0.949l2.537-4.778c0.394-0.74,0.657-1.178,0.788-1.318
					c0.132-0.14,0.378-0.283,0.74-0.432c1.28-0.493,2.306-0.739,3.078-0.739c0.345,0,0.632,0.103,0.863,0.308
					c0.229,0.206,0.344,0.488,0.344,0.849c0,0.247-0.156,0.674-0.467,1.281l-2.291,4.36c-0.197,0.378-0.296,0.657-0.296,0.837
					c0,0.262,0.41,0.394,1.231,0.394l3.375-0.148h0.443c0.822,0,1.231,0.165,1.231,0.493c0,0.197-0.229,0.526-0.689,0.985
					c-0.197,0.182-0.444,0.386-0.74,0.616c-0.23,0.182-0.538,0.394-0.923,0.641c-0.386,0.246-0.809,0.44-1.269,0.578
					C177.272,334.316,176.763,334.386,176.205,334.386z"/>
				<path d="M182.215,347.169c0.854,0,1.548,0.262,2.082,0.788c0.534,0.525,0.801,1.207,0.801,2.044
					c0,0.575-0.173,1.219-0.517,1.933c-0.344,0.714-0.781,1.318-1.305,1.81c-1.002,0.952-2.135,1.429-3.399,1.429
					c-0.837,0-1.51-0.259-2.02-0.776c-0.509-0.517-0.764-1.195-0.764-2.032c0-1.314,0.526-2.509,1.577-3.584
					C179.719,347.707,180.902,347.169,182.215,347.169z"/>
			</g>
			<g>
				<path d="M222.696,316.822l-1.69,3.042c-3.174,5.672-6.615,12.605-10.322,20.796c-1.822,4.382-2.877,7.526-3.163,9.431
					c-0.062,0.491-0.236,0.859-0.523,1.105c-0.123,0.123-0.343,0.302-0.66,0.538c-0.318,0.236-0.733,0.517-1.245,0.845
					c-1.904,1.229-3.236,1.842-3.994,1.842c-0.389,0-0.747-0.195-1.075-0.584c-0.287-0.409-0.43-0.89-0.43-1.444
					c0-1.515,1.198-4.945,3.594-10.29c1.393-3.112,3.03-6.564,4.915-10.353c2.047-4.178,3.42-6.88,4.117-8.109l1.044-1.844
					c0.184-0.327,0.297-0.644,0.338-0.952c0-0.246-0.143-0.369-0.43-0.369l-0.554,0.123l-1.567,0.523
					c-1.454,0.472-2.498,0.706-3.132,0.706c-0.963,0-1.444-0.43-1.444-1.29c0-0.471,0.153-0.86,0.461-1.167
					c0.266-0.205,0.972-0.533,2.119-0.983c2.437-1.003,5.806-2.775,10.107-5.315c0.839-0.471,1.464-0.706,1.873-0.706
					c0.554,0,1.085,0.302,1.598,0.907c0.512,0.603,0.767,1.202,0.767,1.797C223.402,315.439,223.167,316.024,222.696,316.822z"/>
				<path d="M227.396,345.176c0.41,0,0.911,0.389,1.506,1.167c1.433,1.863,3.471,2.795,6.113,2.795
					c5.59,0,10.638-4.494,15.145-13.485l0.369-0.706l0.123-0.369c0-0.185-0.093-0.277-0.277-0.277c-0.123,0-0.267,0.072-0.431,0.215
					c-0.287,0.226-0.691,0.523-1.212,0.891c-0.523,0.369-1.122,0.778-1.797,1.229c-3.666,2.355-7.107,3.532-10.322,3.532
					c-2.663,0-4.844-0.798-6.544-2.396c-1.577-1.474-2.365-3.317-2.365-5.529c0-2.723,0.931-5.518,2.796-8.386
					c2.293-3.522,5.549-6.42,9.768-8.693c1.822-0.962,3.676-1.7,5.56-2.212c1.883-0.512,3.748-0.767,5.59-0.767
					c3.522,0,6.226,1.126,8.11,3.378c1.474,1.762,2.211,4.128,2.211,7.096c0,4.055-1.832,9.027-5.498,14.914
					c-3.666,5.888-7.885,10.44-12.656,13.654c-3.79,2.581-7.63,3.871-11.52,3.871c-2.95,0-5.469-0.799-7.557-2.396
					c-1.209-0.922-1.813-1.813-1.813-2.673c0-0.757,0.603-1.756,1.813-2.995C225.717,345.795,226.68,345.176,227.396,345.176z
					 M247.64,316.976c-1.659,0-3.328,0.348-5.008,1.044c-1.679,0.696-3.184,1.67-4.515,2.919c-1.249,1.167-2.238,2.472-2.964,3.916
					c-0.727,1.444-1.091,2.841-1.091,4.193c0,1.557,0.523,2.826,1.567,3.809c0.512,0.451,1.116,0.799,1.813,1.045
					c0.695,0.245,1.485,0.368,2.365,0.368c1.393,0,2.96-0.338,4.7-1.013c1.741-0.675,3.368-1.598,4.884-2.765
					c1.516-1.167,2.662-2.39,3.44-3.67c0.778-1.28,1.168-2.657,1.168-4.132c0-0.839-0.128-1.577-0.384-2.212
					c-0.257-0.634-0.686-1.228-1.29-1.782c-0.605-0.552-1.301-0.978-2.089-1.274C249.447,317.125,248.582,316.976,247.64,316.976z"
					/>
				<path d="M282.414,338.94l-10.107,6.942c-0.983,0.696-1.495,1.198-1.536,1.505c0,0.246,0.215,0.369,0.644,0.369l1.045-0.092
					l3.011-0.277c2.293-0.225,4.613-0.4,6.958-0.523c2.344-0.123,4.602-0.184,6.773-0.184c1.536,0,2.596,0.086,3.18,0.259
					c0.583,0.172,0.875,0.492,0.875,0.957c0,0.406-0.706,1.187-2.119,2.342c-1.147,0.953-2.068,1.611-2.765,1.976
					c-0.615,0.283-1.321,0.425-2.119,0.425h-0.983h-1.721c-7.352,0-13.834,0.564-19.445,1.69l-1.413,0.154
					c-0.572,0-1.142-0.282-1.705-0.845c-0.562-0.564-0.845-1.152-0.845-1.766c0-0.901,0.626-1.793,1.875-2.673l8.324-5.898
					c3.666-2.58,6.876-4.956,9.631-7.126c2.755-2.171,4.981-4.076,6.681-5.714c3.461-3.399,5.192-6.113,5.192-8.14
					c0-1.229-0.441-2.237-1.321-3.026c-0.88-0.787-2.017-1.182-3.409-1.182c-1.557,0-3.154,0.338-4.792,1.014
					c-0.84,0.348-1.742,0.798-2.704,1.351c-0.963,0.554-2.068,1.26-3.317,2.12l-2.642,1.628c-0.328,0.144-0.646,0.215-0.952,0.215
					c-0.799,0-1.198-0.389-1.198-1.167c0-0.512,0.256-1.034,0.767-1.567c0.512-0.533,1.506-1.362,2.98-2.488
					c2.437-1.762,5.192-3.21,8.264-4.347c3.071-1.136,5.825-1.705,8.263-1.705c2.58,0,4.576,0.646,5.99,1.935
					c1.228,1.147,1.842,2.622,1.842,4.423c0,3.032-1.485,6.093-4.454,9.185C292.355,331.618,288.106,335.028,282.414,338.94z"/>
				<path d="M314.237,344.1l-15.022,1.167l-0.399,0.032c-0.595,0-1.065-0.246-1.414-0.737c-0.348-0.492-0.522-1.137-0.522-1.935
					c0-0.512,0.205-1.034,0.615-1.567c0.369-0.554,1.238-1.546,2.611-2.98c3.297-3.461,7.229-7.398,11.795-11.812
					c4.567-4.412,8.048-7.633,10.444-9.661c1.537-1.291,3.215-2.191,5.038-2.704c3.113-0.839,5.202-1.259,6.267-1.259
					c0.533,0,0.983,0.174,1.352,0.523c0.369,0.349,0.552,0.778,0.552,1.291c0,0.574-0.969,2.746-2.908,6.515l-4.011,8.164
					c-2.575,5.347-3.863,8.338-3.863,8.973c0,0.431,0.318,0.646,0.952,0.646l1.997-0.215l3.624-0.369l2.581-0.246l1.444-0.123
					c0.615,0,0.921,0.195,0.921,0.584c0,0.513-1.065,1.393-3.194,2.642c-1.578,0.921-2.919,1.578-4.025,1.966
					c-0.593,0.205-1.182,0.363-1.766,0.476c-0.583,0.113-1.204,0.168-1.858,0.168l-2.089,0.093c-0.451,0-0.747,0.076-0.891,0.23
					c-0.143,0.153-0.399,0.64-0.767,1.458l-1.045,2.55l-0.368,0.983c-0.431,1.27-0.774,2.068-1.03,2.396s-0.927,0.84-2.012,1.536
					c-2.027,1.29-3.348,1.935-3.963,1.935c-0.615,0-0.921-0.328-0.921-0.983c0-0.266,0.01-0.471,0.03-0.615
					c0.021-0.143,0.093-0.389,0.216-0.736l1.751-4.885l0.921-2.211l0.215-0.706c0-0.39-0.276-0.585-0.829-0.585H314.237z
					 M306.68,340.004l9.431-0.671c0.471,0,0.865-0.051,1.182-0.153c0.318-0.103,0.558-0.246,0.722-0.43
					c0.287-0.307,0.901-1.576,1.845-3.804l1.817-4.114l0.88-2.032l0.902-1.93l1.652-3.597c0.983-1.945,1.495-3.071,1.537-3.379
					c0-0.246-0.123-0.369-0.369-0.369c-0.615,0-2.96,1.978-7.035,5.929l-4.086,3.871l-4.024,3.963
					c-0.717,0.716-1.434,1.423-2.15,2.119c-1.004,1.003-1.762,1.793-2.273,2.365c-0.737,0.799-1.106,1.373-1.106,1.721
					c0,0.349,0.286,0.523,0.859,0.523L306.68,340.004z"/>
			</g>
		</g>
	</g>
</g>
</svg>
